<?xml version="1.0" encoding="UTF-8" standalone="no"?>
<svg
   version="1.1"
   width="200"
   height="200"
   viewBox="0 0 220 220"
   id="svg25"
   sodipodi:docname="logo.svg"
   inkscape:version="1.4.2 (ebf0e940d0, 2025-05-08)"
   xmlns:inkscape="http://www.inkscape.org/namespaces/inkscape"
   xmlns:sodipodi="http://sodipodi.sourceforge.net/DTD/sodipodi-0.dtd"
   xmlns="http://www.w3.org/2000/svg"
   xmlns:svg="http://www.w3.org/2000/svg">
  <defs
     id="defs25" />
  <sodipodi:namedview
     id="namedview25"
     pagecolor="#505050"
     bordercolor="#eeeeee"
     borderopacity="1"
     inkscape:showpageshadow="0"
     inkscape:pageopacity="0"
     inkscape:pagecheckerboard="0"
     inkscape:deskcolor="#505050"
     inkscape:zoom="5.8"
     inkscape:cx="100"
     inkscape:cy="100"
     inkscape:window-width="2560"
     inkscape:window-height="1371"
     inkscape:window-x="0"
     inkscape:window-y="0"
     inkscape:window-maximized="1"
     inkscape:current-layer="g26" />
  <!-- Circles -->
  <circle
     cx="110"
     cy="110"
     r="110"
     fill="#E4002B"
     id="circle1"
     style="display:inline"
     inkscape:label="outline-circle" />
  <circle
     cx="110"
     cy="110"
     r="105"
     fill="#0032A0"
     id="circle2"
     style="display:inline"
     inkscape:label="fill-circle" />
  <!-- Stars -->
  <g
     transform="translate(-1, 1)"
     id="g2"
     inkscape:label="stars">
    <path
       fill="white"
       id="star7"
       d="M 77.92 115.01 C 81.73 113.47 85.66 112.73 89.62 112.12 C 85.61 110.14 81.77 107.92 78.23 105.24 L 79.99 90.48 C 77.27 93.44 74.7 96.6 72.32 100.12 C 70 98.59 68.05 96.61 66.26 94.45 C 65.78 99.62 66.23 104.74 68.3 109.73 C 66.26 113.26 64.75 117.05 64.44 121.38 C 66.55 119.88 68.76 118.64 71.17 117.87 C 73.49 122.41 76.5 125.94 79.84 128.92 C 78.89 124.41 78.1 119.82 77.92 115.01 Z M 77.92 115.01" />
    <path
       fill="white"
       id="star6"
       d="M 113.73 122.12 C 117.01 124.34 121.28 125.44 126.17 125.78 L 120.24 114.12 C 123.66 110.13 126.1 105.68 128.11 101 L 127.71 100.97 L 128.38 100.38 C 123.33 103.28 118.58 105.28 114.44 105.21 L 104.78 92.86 C 105.75 98.4 106.09 103.66 104.66 108.24 L 89.62 112.12 L 104.16 118.89 L 102.64 131.96 Z M 113.73 122.12" />
    <path
       fill="white"
       id="star5"
       d="M 104.78 92.86 L 103.68 80.28 C 106.64 78.6 109.9 77.44 113.31 76.52 C 109.57 74.62 105.75 72.92 101.61 72.15 L 98.04 64.37 L 92.15 72.25 C 86.62 72.44 81.72 73.92 77.38 76.57 C 80.67 77.39 83.86 78.29 86.72 79.97 L 79.99 90.48 C 84.73 87.89 89.48 85.43 94.13 83.73 C 97.91 86.42 101.41 89.55 104.78 92.86 Z M 104.78 92.86" />
    <path
       fill="white"
       id="star4"
       d="M 113.31 76.52 C 117.63 75.27 121.88 74.29 125.8 74.17 C 128.78 76.47 131.49 79.08 134 81.91 C 134.02 78.99 133.92 76.13 133.36 73.55 C 136.21 72.78 138.97 73.09 141.68 73.56 C 137.07 69.84 132.15 66.57 126.42 64.47 C 120.65 62.52 114.76 62.16 108.81 62.45 C 112.51 64.48 116.08 66.62 119.32 69.18 Z M 113.31 76.52" />
    <path
       fill="white"
       id="star3"
       d="M 143.75 115.14 C 144.42 110.61 145.42 106.5 147.1 103.2 C 151.11 103.87 154.66 105.31 157.96 107.11 C 155.69 102.03 152.32 97.82 148.05 94.29 C 149.26 89.48 149.48 84.62 148.29 79.66 C 146.3 82.48 144.12 85.18 141.52 87.63 L 134 81.91 C 135.38 85.13 136.51 88.52 137.18 92.23 L 128.38 100.38 C 128.28 100.58 128.2 100.8 128.11 101 L 140.5 101.53 C 141.93 105.75 142.92 110.35 143.75 115.14 Z M 143.75 115.14" />
    <path
       fill="white"
       id="star2"
       d="M 130.79 140.09 C 134.43 139.07 137.9 137.62 141.15 135.47 C 143.94 137.03 146.6 137.89 149.1 138.15 C 148.39 135.03 147.84 132.25 148.05 130.9 C 153.02 127.47 155.89 123.81 157.02 119.96 C 153.49 121.45 150.02 122.59 146.58 123.21 C 145.32 120.49 144.48 117.81 143.75 115.14 C 142.48 118.14 141.17 121.16 139.65 124.31 C 135.75 126.05 131.23 126.51 126.17 125.78 L 135.37 132.51 Z M 130.79 140.09" />
    <path
       fill="white"
       id="star1"
       d="M 109.9 157.41 C 115.73 157.89 121.67 156.85 127.68 154.56 C 132.29 152.62 136.41 149.86 140.23 146.59 C 136.97 147.2 133.73 147.68 130.69 147.4 L 130.79 140.09 C 128.68 142.86 126.44 145.47 123.6 147.5 C 120.16 148.09 116.5 148.11 112.64 147.57 C 114.58 148.75 116.31 150.1 117.7 151.75 C 115.78 154.43 112.98 156.09 109.9 157.41 Z M 109.9 157.41" />
    <path
       fill="white"
       id="star0"
       d="M 97.67 156.08 L 100.66 148.82 C 104.44 149.08 108.21 148.43 111.94 147.44 C 108.34 146.08 104.87 144.65 102.01 142.87 C 102.65 138.99 102.99 135.29 102.64 131.96 C 99.51 134.48 95.9 136.5 91.73 138.03 L 79.84 128.92 C 81.74 132.3 83.52 135.75 84.71 139.47 C 80.71 139.01 76.93 139.21 73.18 139.53 C 78.3 143.23 84.03 145.76 90.28 147.19 Z M 97.67 156.08" />
  </g>
  <!-- Satellite -->
  <circle
     cx="110"
     cy="110"
     r="65"
     fill="none"
     stroke="#ffffff"
     stroke-width="2"
     stroke-dasharray="6, 6"
     id="circle3"
     style="display:inline"
     inkscape:label="dashes" />
  <path
     fill="#0032A0"
     id="dash-hider"
     d="M 133.74 55.13 L 141.32 44.89 L 170.03 66.15 L 162.45 76.39 Z M 133.74 55.13 " />
  <path
     fill="white"
     id="right-wing"
     d="M 159.55 73.96 L 162.75 70.77 L 154.22 62.24 L 151.02 65.43 Z M 154.41 68.11 L 156.90 65.62 L 159.31 68.03 L 156.81 70.52 Z M 162.05 70.77 L 159.55 73.26 L 157.16 70.87 L 159.66 68.37 Z M 156.55 65.27 L 154.05 67.76 L 151.72 65.43 L 154.22 62.94 Z M 156.55 65.27 " />
  <path
     fill="white"
     id="left-wing"
     d="M 149.17 57.19 L 140.64 48.66 L 137.44 51.85 L 145.98 60.38 Z M 145.98 59.68 L 143.64 57.35 L 146.14 54.85 L 148.47 57.19 Z M 143.29 57.00 L 140.89 54.59 L 143.38 52.10 L 145.78 54.51 Z M 138.14 51.85 L 140.64 49.36 L 143.03 51.75 L 140.53 54.24 Z M 138.14 51.85 " />
  <path
     fill="white"
     id="payload"
     d="M 154.10 60.10 L 154.54 59.67 L 153.53 58.66 L 154.46 57.73 L 153.67 56.94 L 152.74 57.87 L 151.74 56.87 L 151.30 57.31 L 151.00 57.01 L 149.55 58.46 L 148.99 57.91 L 146.69 60.21 L 147.25 60.76 L 145.80 62.22 L 147.05 63.48 L 146.42 64.11 C 145.21 63.10 143.90 62.73 143.33 63.30 C 143.03 63.61 143.99 64.89 145.13 66.05 L 143.31 67.87 C 143.21 67.85 143.10 67.87 143.01 67.95 C 142.89 68.07 142.89 68.27 143.01 68.39 C 143.14 68.51 143.33 68.51 143.45 68.39 C 143.53 68.31 143.56 68.19 143.53 68.09 L 145.35 66.27 C 146.51 67.42 147.80 68.38 148.10 68.07 C 148.67 67.50 148.30 66.19 147.30 64.98 L 147.93 64.35 L 149.19 65.61 L 150.64 64.16 L 151.20 64.71 L 153.50 62.41 L 152.94 61.85 L 154.39 60.40 Z M 151.76 61.83 L 151.53 62.06 L 149.34 59.87 L 149.58 59.64 Z M 148.73 60.49 L 148.96 60.26 L 151.15 62.45 L 150.91 62.68 Z M 152.15 61.44 L 149.96 59.25 L 150.20 59.02 L 152.39 61.21 Z M 152.77 60.82 L 150.58 58.63 L 150.82 58.40 L 153.01 60.59 Z M 152.77 60.82 " />
  <!-- NASA -->
  <!-- Goddard -->
  <!-- Soccer -->
  <!-- League -->
  <g
     id="g26"
     inkscape:label="league">
    <path
       fill="white"
       transform="translate(198.92, 80.12)"
       d="M -8.45 -11.6 L -5.79 -12.81 L -0.76 -1.7 L -15.1 4.79 L -20.01 -6.04 L -17.35 -7.25 L -13.95 0.29 L -10.82 -1.12 L -13.84 -7.78 L -11.26 -8.95 L -8.25 -2.29 L -4.92 -3.79 Z M -8.45 -11.6"
       id="path25"
       inkscape:label="E" />
    <path
       fill="white"
       transform="translate(203.82,100.13)"
       d="M -1.65 -8.7 C -1.16 -6.51 -1.39 -4.67 -2.34 -3.17 C -3.28 -1.67 -4.89 -0.67 -7.14 -0.17 L -15.75 1.73 L -16.54 -1.82 L -8.06 -3.71 C -5.31 -4.33 -4.19 -5.78 -4.7 -8.06 C -4.94 -9.17 -5.45 -9.94 -6.25 -10.37 C -7.05 -10.81 -8.16 -10.87 -9.57 -10.56 L -18.06 -8.67 L -18.85 -12.18 L -10.25 -14.09 C -8 -14.6 -6.12 -14.37 -4.62 -13.42 C -3.13 -12.47 -2.14 -10.89 -1.65 -8.7 Z M -1.65 -8.7"
       id="path24"
       inkscape:label="U" />
    <path
       fill="white"
       transform="translate(204.14,120.46)"
       d="M -8.12 -12.51 L -8.12 -15.84 L -1.73 -15.84 C -1.08 -14.98 -0.59 -14 -0.25 -12.87 C 0.09 -11.75 0.26 -10.61 0.26 -9.46 C 0.26 -7.83 -0.08 -6.36 -0.78 -5.06 C -1.47 -3.75 -2.44 -2.73 -3.67 -1.98 C -4.91 -1.24 -6.31 -0.87 -7.87 -0.87 C -9.43 -0.87 -10.83 -1.24 -12.06 -1.98 C -13.3 -2.73 -14.26 -3.76 -14.96 -5.07 C -15.66 -6.39 -16.01 -7.89 -16.01 -9.54 C -16.01 -10.92 -15.78 -12.17 -15.31 -13.29 C -14.85 -14.42 -14.17 -15.36 -13.29 -16.12 L -11.14 -13.79 C -12.32 -12.67 -12.92 -11.31 -12.92 -9.71 C -12.92 -8.71 -12.7 -7.82 -12.28 -7.04 C -11.86 -6.26 -11.26 -5.65 -10.5 -5.21 C -9.73 -4.78 -8.86 -4.56 -7.87 -4.56 C -6.89 -4.56 -6.02 -4.78 -5.26 -5.21 C -4.5 -5.65 -3.9 -6.25 -3.46 -7.03 C -3.03 -7.8 -2.82 -8.67 -2.82 -9.67 C -2.82 -10.72 -3.05 -11.67 -3.51 -12.51 Z M -8.12 -12.51"
       id="path23"
       inkscape:label="G" />
    <path
       fill="white"
       transform="translate(200.13,140.28)"
       d="M -0.67 -12.67 L -2.25 -5.53 L 0.75 -3.45 L -0.04 0.2 L -13.93 -10.03 L -13.15 -13.56 L 3.73 -17.04 L 2.92 -13.32 Z M -3.62 -12.15 L -10.04 -11 L -4.7 -7.26 Z M -3.62 -12.15"
       id="path22"
       inkscape:label="A" />
    <path
       fill="white"
       transform="translate(192.99,156.77)"
       d="M 3.04 -14.03 L 5.71 -12.84 L 0.76 -1.71 L -13.62 -8.12 L -8.79 -18.98 L -6.12 -17.79 L -9.48 -10.23 L -6.35 -8.84 L -3.39 -15.51 L -0.79 -14.35 L -3.76 -7.68 L -0.43 -6.2 Z M 3.04 -14.03"
       id="path21"
       inkscape:label="E" />
    <path
       fill="white"
       transform="translate(183.93,170.31)"
       d="M -11.93 -10.43 L -9.89 -13.43 L 0.65 -6.21 L 5.12 -12.73 L 7.57 -11.06 L 1.06 -1.54 Z M -11.93 -10.43"
       id="path20"
       inkscape:label="L" />
  </g>
  <g
     id="g27"
     inkscape:label="soccer">
    <path
       fill="white"
       transform="translate(163.84, 189.22)"
       d="M 9.17 -7.59 L 4.03 -9.01 L 3.89 -8.9 L 1.45 -6.89 L 4.25 -3.51 L 1.43 -1.18 L -8.6 -13.32 L -3.35 -17.67 C -2.27 -18.56 -1.19 -19.16 -0.1 -19.45 C 0.97 -19.74 2 -19.73 2.98 -19.43 C 3.96 -19.14 4.82 -18.54 5.57 -17.64 C 6.31 -16.73 6.73 -15.77 6.84 -14.76 C 6.95 -13.75 6.75 -12.74 6.23 -11.73 L 12.18 -10.07 Z M 2.71 -15.28 C 2.15 -15.95 1.5 -16.29 0.76 -16.29 C 0.02 -16.29 -0.76 -15.94 -1.6 -15.25 L -3.89 -13.35 L -0.4 -9.14 L 1.87 -11.03 C 2.71 -11.72 3.2 -12.44 3.34 -13.17 C 3.47 -13.91 3.26 -14.61 2.71 -15.28 Z M 2.71 -15.28"
       id="path19"
       inkscape:label="R" />
    <path
       fill="white"
       transform="translate(148.13,197.88)"
       d="M 11.01 -9.21 L 12.39 -6.64 L 1.65 -0.89 L -5.78 -14.76 L 4.68 -20.37 L 6.06 -17.79 L -1.23 -13.89 L 0.37 -10.87 L 6.82 -14.32 L 8.17 -11.82 L 1.71 -8.37 L 3.45 -5.17 Z M 11.01 -9.21"
       id="path18"
       inkscape:label="E" />
    <path
       fill="white"
       transform="translate(129.75001,203.8)"
       d="M 9.07 -2.46 C 7.54 -2 6.05 -1.92 4.6 -2.21 C 3.16 -2.5 1.9 -3.13 0.84 -4.09 C -0.21 -5.06 -0.97 -6.28 -1.43 -7.78 C -1.88 -9.28 -1.92 -10.72 -1.57 -12.12 C -1.23 -13.53 -0.53 -14.75 0.5 -15.79 C 1.53 -16.83 2.83 -17.59 4.37 -18.06 C 5.68 -18.45 6.93 -18.58 8.12 -18.43 C 9.32 -18.3 10.41 -17.91 11.39 -17.28 L 9.78 -14.51 C 8.4 -15.39 6.96 -15.61 5.46 -15.15 C 4.53 -14.87 3.75 -14.41 3.14 -13.76 C 2.53 -13.12 2.13 -12.38 1.93 -11.53 C 1.75 -10.68 1.79 -9.79 2.07 -8.85 C 2.35 -7.92 2.81 -7.14 3.45 -6.54 C 4.08 -5.94 4.83 -5.53 5.68 -5.34 C 6.55 -5.15 7.45 -5.2 8.39 -5.48 C 9.89 -5.94 10.96 -6.92 11.62 -8.42 L 14.48 -7.04 C 14.02 -5.95 13.33 -5.01 12.42 -4.23 C 11.5 -3.45 10.39 -2.86 9.07 -2.46 Z M 9.07 -2.46"
       id="path17"
       inkscape:label="C" />
    <path
       fill="white"
       transform="translate(110.46,205.79)"
       d="M 9.39 -0.54 C 7.78 -0.41 6.3 -0.63 4.95 -1.21 C 3.6 -1.8 2.5 -2.67 1.65 -3.84 C 0.81 -5 0.32 -6.36 0.18 -7.92 C 0.05 -9.48 0.3 -10.91 0.93 -12.2 C 1.57 -13.49 2.5 -14.53 3.73 -15.34 C 4.96 -16.15 6.38 -16.62 8 -16.76 C 9.35 -16.89 10.59 -16.75 11.73 -16.37 C 12.87 -15.98 13.86 -15.38 14.68 -14.56 L 12.54 -12.18 C 11.37 -13.34 10.01 -13.84 8.45 -13.7 C 7.47 -13.61 6.61 -13.32 5.89 -12.82 C 5.17 -12.33 4.62 -11.69 4.26 -10.89 C 3.91 -10.09 3.77 -9.21 3.85 -8.23 C 3.94 -7.25 4.22 -6.4 4.71 -5.68 C 5.21 -4.97 5.86 -4.43 6.65 -4.06 C 7.45 -3.69 8.34 -3.55 9.32 -3.64 C 10.89 -3.78 12.14 -4.52 13.1 -5.85 L 15.62 -3.9 C 14.94 -2.93 14.07 -2.16 13.01 -1.59 C 11.95 -1.01 10.74 -0.67 9.39 -0.54 Z M 9.39 -0.54"
       id="path16"
       inkscape:label="C" />
    <path
       fill="white"
       transform="translate(88.61,203.31)"
       d="M 9.39 1.53 C 7.76 1.31 6.34 0.76 5.14 -0.09 C 3.92 -0.96 3.03 -2.07 2.46 -3.4 C 1.89 -4.73 1.7 -6.16 1.9 -7.68 C 2.11 -9.21 2.67 -10.54 3.57 -11.67 C 4.48 -12.79 5.63 -13.61 7.03 -14.14 C 8.42 -14.67 9.93 -14.82 11.56 -14.6 C 13.17 -14.39 14.58 -13.84 15.78 -12.96 C 16.97 -12.09 17.86 -10.98 18.43 -9.65 C 19.01 -8.33 19.2 -6.9 19 -5.37 C 18.8 -3.85 18.24 -2.52 17.32 -1.39 C 16.42 -0.26 15.27 0.55 13.89 1.07 C 12.5 1.59 11 1.75 9.39 1.53 Z M 9.79 -1.53 C 10.71 -1.4 11.56 -1.5 12.35 -1.82 C 13.16 -2.16 13.82 -2.67 14.35 -3.37 C 14.89 -4.07 15.21 -4.9 15.34 -5.87 C 15.47 -6.85 15.38 -7.74 15.06 -8.54 C 14.73 -9.34 14.23 -10.01 13.54 -10.54 C 12.86 -11.08 12.07 -11.42 11.15 -11.54 C 10.21 -11.67 9.34 -11.56 8.54 -11.23 C 7.75 -10.89 7.09 -10.38 6.56 -9.68 C 6.03 -9 5.69 -8.16 5.56 -7.18 C 5.43 -6.21 5.53 -5.32 5.85 -4.51 C 6.17 -3.71 6.67 -3.04 7.35 -2.51 C 8.04 -1.98 8.85 -1.65 9.79 -1.53 Z M 9.79 -1.53"
       id="path15"
       inkscape:label="O" />
    <path
       fill="white"
       transform="translate(72.31,197.56)"
       d="M 6.54 2.62 C 5.36 2.19 4.28 1.62 3.31 0.92 C 2.33 0.21 1.59 -0.5 1.1 -1.25 L 3.2 -3.42 C 3.67 -2.73 4.28 -2.08 5.06 -1.48 C 5.84 -0.89 6.67 -0.43 7.54 -0.12 C 8.52 0.22 9.29 0.34 9.85 0.21 C 10.42 0.09 10.8 -0.2 10.96 -0.68 C 11.1 -1.03 11.07 -1.38 10.87 -1.71 C 10.67 -2.05 10.39 -2.36 10.01 -2.65 C 9.64 -2.94 9.11 -3.31 8.43 -3.75 C 7.39 -4.42 6.56 -5.02 5.93 -5.54 C 5.32 -6.06 4.85 -6.71 4.54 -7.5 C 4.24 -8.28 4.26 -9.16 4.62 -10.15 C 4.93 -11 5.45 -11.7 6.17 -12.23 C 6.89 -12.77 7.78 -13.07 8.87 -13.14 C 9.95 -13.21 11.17 -13 12.53 -12.53 C 13.47 -12.18 14.35 -11.73 15.17 -11.18 C 15.99 -10.64 16.67 -10.03 17.2 -9.37 L 15.21 -7.15 C 14.13 -8.41 12.9 -9.28 11.53 -9.78 C 10.57 -10.12 9.8 -10.22 9.23 -10.07 C 8.66 -9.94 8.28 -9.61 8.09 -9.1 C 7.91 -8.59 8.04 -8.12 8.48 -7.68 C 8.92 -7.25 9.64 -6.71 10.64 -6.07 C 11.67 -5.41 12.51 -4.81 13.14 -4.28 C 13.76 -3.75 14.22 -3.11 14.53 -2.35 C 14.84 -1.59 14.82 -0.72 14.46 0.26 C 14.16 1.1 13.64 1.79 12.92 2.32 C 12.2 2.86 11.29 3.17 10.2 3.23 C 9.11 3.3 7.89 3.1 6.54 2.62 Z M 6.54 2.62"
       id="path14"
       inkscape:label="S" />
  </g>
  <g
     id="g28"
     inkscape:label="goddard">
    <path
       fill="white"
       transform="translate(47.30, 181.44)"
       d="M 10.89 -11.51 L 16.62 -7.26 C 18 -6.24 19.03 -5.08 19.68 -3.78 C 20.35 -2.47 20.62 -1.13 20.5 0.25 C 20.37 1.63 19.84 2.95 18.9 4.21 C 17.96 5.48 16.85 6.38 15.56 6.9 C 14.28 7.42 12.91 7.55 11.46 7.29 C 10.03 7.03 8.61 6.39 7.23 5.37 L 1.5 1.12 Z M 8.87 2.85 C 10.14 3.79 11.41 4.19 12.68 4.04 C 13.96 3.91 15.05 3.23 15.93 2.03 C 16.83 0.83 17.16 -0.39 16.93 -1.65 C 16.7 -2.92 15.95 -4.03 14.68 -4.96 L 12.01 -6.95 L 6.2 0.87 Z M 8.87 2.85"
       id="path13"
       inkscape:label="D" />
    <path
       fill="white"
       transform="translate(34.35,166.8)"
       d="M 7.78 9 L 9.12 3.82 L 9.01 3.7 L 6.93 1.29 L 3.6 4.17 L 1.21 1.42 L 13.12 -8.87 L 17.59 -3.71 C 18.5 -2.66 19.11 -1.59 19.43 -0.51 C 19.75 0.55 19.78 1.58 19.5 2.56 C 19.21 3.53 18.63 4.41 17.75 5.18 C 16.86 5.94 15.91 6.39 14.9 6.51 C 13.9 6.64 12.89 6.46 11.85 5.96 L 10.34 11.95 Z M 15.32 2.39 C 15.99 1.8 16.32 1.14 16.31 0.4 C 16.3 -0.33 15.93 -1.11 15.21 -1.93 L 13.28 -4.18 L 9.12 -0.59 L 11.06 1.65 C 11.78 2.47 12.5 2.94 13.23 3.06 C 13.97 3.17 14.67 2.95 15.32 2.39 Z M 15.32 2.39"
       id="path12"
       inkscape:label="R" />
    <path
       fill="white"
       transform="translate(24.34,149.29)"
       d="M 8.84 9.09 L 5.32 2.68 L 1.7 3.09 L -0.09 -0.17 L 17.09 -1.6 L 18.82 1.56 L 8.39 15.29 L 6.56 11.95 Z M 10.71 6.76 L 14.81 1.67 L 8.32 2.39 Z M 10.71 6.76"
       id="path11"
       inkscape:label="A" />
    <path
       fill="white"
       transform="translate(18,128.63999)"
       d="M 15.65 -2.53 L 17.62 4.34 C 18.09 5.98 18.19 7.53 17.92 8.96 C 17.66 10.41 17.06 11.64 16.12 12.67 C 15.18 13.69 13.96 14.41 12.45 14.84 C 10.92 15.28 9.5 15.31 8.15 14.95 C 6.81 14.58 5.64 13.85 4.65 12.76 C 3.67 11.67 2.95 10.31 2.48 8.67 L 0.51 1.79 Z M 5.32 7.67 C 5.75 9.17 6.51 10.26 7.6 10.92 C 8.71 11.58 9.98 11.71 11.43 11.29 C 12.87 10.89 13.88 10.11 14.46 8.96 C 15.05 7.83 15.12 6.5 14.7 5 L 13.78 1.79 L 4.4 4.46 Z M 5.32 7.67"
       id="path10"
       inkscape:label="D" />
    <path
       fill="white"
       transform="translate(16.62,107)"
       d="M 15.82 1.12 L 16.15 8.25 C 16.23 9.96 15.98 11.5 15.39 12.84 C 14.8 14.18 13.93 15.25 12.78 16.03 C 11.63 16.81 10.27 17.23 8.7 17.31 C 7.14 17.38 5.74 17.08 4.51 16.42 C 3.29 15.75 2.32 14.78 1.6 13.5 C 0.89 12.21 0.5 10.71 0.42 9 L 0.09 1.87 Z M 3.42 8.68 C 3.49 10.25 3.98 11.49 4.9 12.39 C 5.83 13.28 7.03 13.69 8.53 13.62 C 10.03 13.55 11.19 13.02 12.01 12.04 C 12.84 11.06 13.22 9.78 13.15 8.21 L 13 4.9 L 3.26 5.37 Z M 3.42 8.68"
       id="path9"
       inkscape:label="D" />
    <path
       fill="white"
       transform="translate(20.32,85.21)"
       d="M -2.01 9.29 C -1.71 7.67 -1.09 6.29 -0.15 5.14 C 0.76 3.98 1.91 3.14 3.26 2.64 C 4.62 2.14 6.06 2.03 7.57 2.31 C 9.09 2.59 10.39 3.21 11.46 4.17 C 12.55 5.14 13.31 6.33 13.76 7.75 C 14.21 9.16 14.28 10.67 13.98 12.29 C 13.67 13.89 13.06 15.27 12.12 16.42 C 11.19 17.57 10.05 18.4 8.7 18.9 C 7.34 19.41 5.91 19.53 4.39 19.25 C 2.87 18.96 1.58 18.34 0.5 17.37 C -0.58 16.41 -1.34 15.22 -1.79 13.81 C -2.24 12.4 -2.31 10.89 -2.01 9.29 Z M 1.03 9.85 C 0.85 10.76 0.9 11.62 1.18 12.45 C 1.47 13.27 1.95 13.96 2.62 14.51 C 3.28 15.07 4.1 15.44 5.06 15.62 C 6.03 15.8 6.92 15.75 7.75 15.46 C 8.58 15.19 9.28 14.73 9.84 14.07 C 10.4 13.42 10.77 12.64 10.95 11.73 C 11.11 10.8 11.05 9.92 10.76 9.1 C 10.48 8.29 10 7.6 9.34 7.04 C 8.67 6.48 7.85 6.11 6.89 5.93 C 5.92 5.75 5.03 5.81 4.2 6.09 C 3.37 6.37 2.68 6.83 2.12 7.48 C 1.56 8.14 1.19 8.92 1.03 9.85 Z M 1.03 9.85"
       id="path8"
       inkscape:label="O" />
    <path
       fill="white"
       transform="translate(28.26,66.4)"
       d="M 2.42 14.71 L 1.09 17.76 L -4.75 15.2 C -5 14.17 -5.05 13.06 -4.92 11.89 C -4.79 10.72 -4.5 9.61 -4.04 8.56 C -3.39 7.06 -2.47 5.85 -1.31 4.93 C -0.15 4.03 1.13 3.48 2.56 3.29 C 4 3.1 5.43 3.32 6.87 3.95 C 8.3 4.57 9.42 5.47 10.25 6.65 C 11.08 7.83 11.55 9.16 11.67 10.64 C 11.78 12.12 11.5 13.63 10.84 15.15 C 10.28 16.41 9.57 17.46 8.7 18.31 C 7.83 19.16 6.84 19.76 5.73 20.1 L 4.67 17.1 C 6.22 16.54 7.31 15.53 7.95 14.07 C 8.34 13.16 8.5 12.25 8.43 11.37 C 8.36 10.5 8.06 9.7 7.53 9 C 7 8.28 6.29 7.73 5.39 7.34 C 4.49 6.94 3.6 6.79 2.73 6.89 C 1.85 6.99 1.06 7.3 0.35 7.82 C -0.33 8.35 -0.88 9.07 -1.28 9.98 C -1.69 10.95 -1.86 11.91 -1.79 12.87 Z M 2.42 14.71"
       id="path7"
       inkscape:label="G" />
  </g>
  <g
     id="g25"
     inkscape:label="nasa">
    <path
       fill="white"
       transform="translate(132.04,35.01)"
       d="M 14.35 1.04 L 6.54 -1.73 L 3.78 1.34 L -0.21 -0.07 L 13.28 -14.25 L 17.14 -12.87 L 18.65 6.64 L 14.57 5.18 Z M 14.2 -2.34 L 13.82 -9.75 L 8.85 -4.23 Z M 14.2 -2.34"
       id="path6"
       inkscape:label="A" />
    <path
       fill="white"
       transform="translate(113.80001,32.7)"
       d="M 7.89 1.29 C 6.49 1.11 5.16 0.75 3.9 0.2 C 2.64 -0.33 1.65 -0.95 0.93 -1.65 L 2.7 -4.57 C 3.39 -3.92 4.23 -3.35 5.25 -2.89 C 6.25 -2.42 7.28 -2.14 8.32 -2.01 C 9.49 -1.86 10.37 -1.92 10.96 -2.2 C 11.57 -2.48 11.91 -2.91 11.98 -3.48 C 12.03 -3.89 11.91 -4.26 11.6 -4.59 C 11.31 -4.91 10.92 -5.19 10.42 -5.42 C 9.92 -5.66 9.25 -5.92 8.4 -6.23 C 7.1 -6.71 6.03 -7.17 5.21 -7.6 C 4.39 -8.04 3.71 -8.65 3.18 -9.43 C 2.65 -10.22 2.46 -11.21 2.6 -12.39 C 2.73 -13.42 3.12 -14.31 3.78 -15.07 C 4.44 -15.84 5.37 -16.4 6.56 -16.75 C 7.75 -17.1 9.15 -17.17 10.78 -16.96 C 11.9 -16.83 12.98 -16.56 14.03 -16.15 C 15.07 -15.75 15.97 -15.25 16.73 -14.65 L 15.07 -11.68 C 13.56 -12.82 11.98 -13.49 10.34 -13.7 C 9.19 -13.83 8.32 -13.75 7.71 -13.43 C 7.12 -13.13 6.78 -12.67 6.71 -12.07 C 6.63 -11.46 6.89 -10.96 7.48 -10.59 C 8.08 -10.22 9.02 -9.82 10.29 -9.37 C 11.6 -8.88 12.67 -8.42 13.48 -8 C 14.3 -7.57 14.98 -6.97 15.51 -6.2 C 16.04 -5.44 16.23 -4.46 16.09 -3.28 C 15.96 -2.26 15.56 -1.37 14.89 -0.6 C 14.22 0.16 13.29 0.71 12.1 1.06 C 10.92 1.41 9.51 1.49 7.89 1.29 Z M 7.89 1.29"
       id="path5"
       inkscape:label="S" />
    <path
       fill="white"
       transform="translate(92.24,34.370001)"
       d="M 13.46 -5.14 L 5.2 -4.34 L 4 -0.39 L -0.23 0.01 L 5.98 -18.53 L 10.06 -18.93 L 19.71 -1.89 L 15.39 -1.48 Z M 11.85 -8.14 L 8.37 -14.68 L 6.21 -7.59 Z M 11.85 -8.14"
       id="path4"
       inkscape:label="A" />
    <path
       fill="white"
       transform="translate(70.87,41.53)"
       d="M 11.56 -23 L 17.46 -6.12 L 14.26 -5 L 2.28 -12.28 L 5.85 -2.04 L 2 -0.7 L -3.9 -17.57 L -0.67 -18.7 L 11.29 -11.39 L 7.7 -21.64 Z M 11.56 -23"
       id="path3"
       inkscape:label="N" />
  </g>
</svg>
